<svg xmlns="http://www.w3.org/2000/svg" viewBox="0 0 32 32" width="32" height="32">
  <defs>
    <linearGradient id="gradient" x1="0%" y1="0%" x2="100%" y2="100%">
      <stop offset="0%" style="stop-color:#667eea;stop-opacity:1" />
      <stop offset="100%" style="stop-color:#764ba2;stop-opacity:1" />
    </linearGradient>
    <linearGradient id="gradient2" x1="0%" y1="0%" x2="100%" y2="100%">
      <stop offset="0%" style="stop-color:#764ba2;stop-opacity:1" />
      <stop offset="100%" style="stop-color:#667eea;stop-opacity:1" />
    </linearGradient>
    <filter id="shadow" x="-50%" y="-50%" width="200%" height="200%">
      <feDropShadow dx="0" dy="2" stdDeviation="2" flood-opacity="0.2"/>
    </filter>
  </defs>

  <!-- Background rounded square -->
  <rect x="2" y="2" width="28" height="28" rx="8" fill="url(#gradient)" filter="url(#shadow)"/>

  <!-- Inner white background -->
  <rect x="6" y="8" width="20" height="16" rx="3" fill="#ffffff" opacity="0.95"/>

  <!-- Film strip holes top -->
  <rect x="8" y="10" width="2" height="2" rx="0.5" fill="url(#gradient2)"/>
  <rect x="12" y="10" width="2" height="2" rx="0.5" fill="url(#gradient2)"/>
  <rect x="16" y="10" width="2" height="2" rx="0.5" fill="url(#gradient2)"/>
  <rect x="20" y="10" width="2" height="2" rx="0.5" fill="url(#gradient2)"/>

  <!-- Film strip holes bottom -->
  <rect x="8" y="20" width="2" height="2" rx="0.5" fill="url(#gradient2)"/>
  <rect x="12" y="20" width="2" height="2" rx="0.5" fill="url(#gradient2)"/>
  <rect x="16" y="20" width="2" height="2" rx="0.5" fill="url(#gradient2)"/>
  <rect x="20" y="20" width="2" height="2" rx="0.5" fill="url(#gradient2)"/>

  <!-- Central play button -->
  <circle cx="16" cy="16" r="3" fill="url(#gradient)"/>
  <polygon points="15,14.5 15,17.5 17.5,16" fill="#ffffff"/>

  <!-- Frame lines -->
  <line x1="7" y1="13" x2="25" y2="13" stroke="url(#gradient2)" stroke-width="0.5" opacity="0.5"/>
  <line x1="7" y1="19" x2="25" y2="19" stroke="url(#gradient2)" stroke-width="0.5" opacity="0.5"/>
</svg>